# xmcd CD database file
#
# Track frame offsets:
#	150
#	82185
#	123849
#	194627
#	244427
#	277722
#	312970
#
# Disc length: 4550 seconds
#
# Revision: 2
# Processed by: cddbd v1.5.2PL0 Copyright (c) Steve Scherf et al.
# Submitted via: CDex 1.51
#
DISCID=6011c407
DTITLE=Various Artist - Evgeny Svetlanov - Vol.04
DYEAR=1900
DGENRE=Classique
TTITLE0=Serge Rachmaninoff - Symphony N°2 in E minor Op.27 - I. Largo- Allegro [Bolshoi Theatre Orchestra, 1964]
TTITLE1=Serge Rachmaninoff - Symphony N°2 in E minor Op.27 - II. Scherzo - Allegro molto
TTITLE2=Serge Rachmaninoff - Symphony N°2 in E minor Op.27 - III. Adagio
TTITLE3=Serge Rachmaninoff - Symphony N°2 in E minor Op.27 - IV. Allegro vivace
TTITLE4=Sergey Lyapunov - Polonaise in D major Op.16
TTITLE5=Anatoly Lyadov - Polonaise In C major Op.49  [USSR State Symphony Orchestra - 1980]
TTITLE6=Anton Rubinstein - Waltz-Caprice in E flat major  [USSR State Symphony Orchestra - 1992]
EXTD=
EXTT0=
EXTT1=
EXTT2=
EXTT3=
EXTT4=
EXTT5=
EXTT6=
PLAYORDER=
